<svg id="visual" viewBox="0 0 900 600" width="900" height="600" xmlns="http://www.w3.org/2000/svg" xmlns:xlink="http://www.w3.org/1999/xlink" version="1.1"><rect x="0" y="0" width="900" height="600" fill="#040406"></rect><path d="M0 390L37.5 384.5C75 379 150 368 225 361.7C300 355.3 375 353.7 450 354C525 354.3 600 356.7 675 356.7C750 356.7 825 354.3 862.5 353.2L900 352L900 601L862.5 601C825 601 750 601 675 601C600 601 525 601 450 601C375 601 300 601 225 601C150 601 75 601 37.5 601L0 601Z" fill="#021526"></path><path d="M0 448L37.5 450.5C75 453 150 458 225 456.5C300 455 375 447 450 442.8C525 438.7 600 438.3 675 437C750 435.7 825 433.3 862.5 432.2L900 431L900 601L862.5 601C825 601 750 601 675 601C600 601 525 601 450 601C375 601 300 601 225 601C150 601 75 601 37.5 601L0 601Z" fill="#002549"></path><path d="M0 539L37.5 538C75 537 150 535 225 533.5C300 532 375 531 450 531.2C525 531.3 600 532.7 675 531.5C750 530.3 825 526.7 862.5 524.8L900 523L900 601L862.5 601C825 601 750 601 675 601C600 601 525 601 450 601C375 601 300 601 225 601C150 601 75 601 37.5 601L0 601Z" fill="#03346e"></path></svg>