<svg id="visual" viewBox="0 0 900 600" width="900" height="600" xmlns="http://www.w3.org/2000/svg" xmlns:xlink="http://www.w3.org/1999/xlink" version="1.1"><path d="M0 37L30 38C60 39 120 41 180 43C240 45 300 47 360 48C420 49 480 49 540 49C600 49 660 49 720 47C780 45 840 41 870 39L900 37L900 0L870 0C840 0 780 0 720 0C660 0 600 0 540 0C480 0 420 0 360 0C300 0 240 0 180 0C120 0 60 0 30 0L0 0Z" fill="#030305"></path><path d="M0 85L30 85C60 85 120 85 180 86C240 87 300 89 360 90C420 91 480 91 540 90C600 89 660 87 720 86C780 85 840 85 870 85L900 85L900 35L870 37C840 39 780 43 720 45C660 47 600 47 540 47C480 47 420 47 360 46C300 45 240 43 180 41C120 39 60 37 30 36L0 35Z" fill="#030305"></path><path d="M0 223L30 227C60 231 120 239 180 244C240 249 300 251 360 247C420 243 480 233 540 229C600 225 660 227 720 223C780 219 840 209 870 204L900 199L900 83L870 83C840 83 780 83 720 84C660 85 600 87 540 88C480 89 420 89 360 88C300 87 240 85 180 84C120 83 60 83 30 83L0 83Z" fill="#040406"></path><path d="M0 259L30 263C60 267 120 275 180 279C240 283 300 283 360 279C420 275 480 267 540 265C600 263 660 267 720 263C780 259 840 247 870 241L900 235L900 197L870 202C840 207 780 217 720 221C660 225 600 223 540 227C480 231 420 241 360 245C300 249 240 247 180 242C120 237 60 229 30 225L0 221Z" fill="#040406"></path><path d="M0 319L30 322C60 325 120 331 180 334C240 337 300 337 360 333C420 329 480 321 540 320C600 319 660 325 720 321C780 317 840 303 870 296L900 289L900 233L870 239C840 245 780 257 720 261C660 265 600 261 540 263C480 265 420 273 360 277C300 281 240 281 180 277C120 273 60 265 30 261L0 257Z" fill="#0b0b0f"></path><path d="M0 397L30 400C60 403 120 409 180 411C240 413 300 411 360 407C420 403 480 397 540 396C600 395 660 399 720 395C780 391 840 379 870 373L900 367L900 287L870 294C840 301 780 315 720 319C660 323 600 317 540 318C480 319 420 327 360 331C300 335 240 335 180 332C120 329 60 323 30 320L0 317Z" fill="#15151c"></path><path d="M0 457L30 462C60 467 120 477 180 480C240 483 300 479 360 474C420 469 480 463 540 462C600 461 660 465 720 463C780 461 840 453 870 449L900 445L900 365L870 371C840 377 780 389 720 393C660 397 600 393 540 394C480 395 420 401 360 405C300 409 240 411 180 409C120 407 60 401 30 398L0 395Z" fill="#1c1c27"></path><path d="M0 601L30 601C60 601 120 601 180 601C240 601 300 601 360 601C420 601 480 601 540 601C600 601 660 601 720 601C780 601 840 601 870 601L900 601L900 443L870 447C840 451 780 459 720 461C660 463 600 459 540 460C480 461 420 467 360 472C300 477 240 481 180 478C120 475 60 465 30 460L0 455Z" fill="#242433"></path></svg>